<svg width="495" height="300" viewBox="0 0 495 300" xmlns="http://www.w3.org/2000/svg"><path d="M303.5 300h-53.946c-6.04 0-11.016-1.407-14.928-4.221-3.912-2.814-6.623-6.417-8.133-10.81l-17.708-52.3H94.715l-17.707 52.3c-1.373 3.844-4.05 7.31-8.03 10.398-3.981 3.089-8.854 4.633-14.62 4.633H0L116.129 0h71.242l116.13 300zM110.776 185.312l27.59-81.743c2.06-5.216 4.256-11.393 6.59-18.531 2.333-7.138 4.598-14.894 6.794-23.267 2.334 8.236 4.702 15.889 7.104 22.958a8957.53 8957.53 0 0 0 6.28 18.428l27.59 82.155h-81.948zM349.088 25.725c-.605 1.007-1.243 1.763-1.914 2.267-.672.504-1.545.755-2.62.755-1.142 0-2.469-.57-3.98-1.712-1.512-1.142-3.426-2.402-5.744-3.779-2.317-1.377-5.105-2.637-8.363-3.778-3.258-1.142-7.204-1.713-11.84-1.713-4.365 0-8.228.587-11.587 1.763-3.358 1.175-6.163 2.77-8.413 4.786-2.25 2.015-3.947 4.383-5.089 7.104-1.142 2.72-1.713 5.659-1.713 8.816 0 4.03.991 7.373 2.973 10.026 1.982 2.653 4.601 4.92 7.86 6.801 3.257 1.881 6.952 3.51 11.083 4.887 4.131 1.377 8.363 2.805 12.696 4.283a148.608 148.608 0 0 1 12.696 4.987c4.13 1.847 7.825 4.182 11.083 7.003 3.258 2.821 5.878 6.28 7.86 10.378 1.981 4.098 2.972 9.136 2.972 15.115 0 6.314-1.075 12.242-3.224 17.784-2.15 5.542-5.29 10.361-9.421 14.459-4.132 4.098-9.203 7.322-15.215 9.673-6.012 2.351-12.847 3.527-20.505 3.527-9.337 0-17.851-1.696-25.543-5.089-7.691-3.392-14.258-7.977-19.699-13.754l5.643-9.27a7.419 7.419 0 0 1 1.965-1.864 4.605 4.605 0 0 1 2.57-.755c1.41 0 3.022.755 4.836 2.267 1.813 1.511 4.08 3.174 6.801 4.987 2.72 1.814 6.012 3.477 9.875 4.988 3.862 1.511 8.581 2.267 14.157 2.267 4.635 0 8.766-.638 12.393-1.914 3.628-1.277 6.7-3.073 9.22-5.391 2.519-2.317 4.45-5.088 5.793-8.313 1.344-3.224 2.016-6.818 2.016-10.781 0-4.366-.991-7.943-2.973-10.731-1.981-2.788-4.584-5.122-7.809-7.003-3.224-1.88-6.902-3.476-11.033-4.786-4.131-1.31-8.363-2.654-12.696-4.03a128.024 128.024 0 0 1-12.696-4.787c-4.131-1.813-7.809-4.165-11.033-7.053-3.224-2.889-5.827-6.5-7.809-10.832-1.982-4.333-2.972-9.69-2.972-16.071 0-5.105.99-10.043 2.972-14.812 1.982-4.77 4.853-9.001 8.615-12.696 3.762-3.694 8.414-6.65 13.955-8.867 5.542-2.217 11.907-3.325 19.095-3.325 8.06 0 15.416 1.276 22.066 3.829 6.65 2.553 12.46 6.247 17.432 11.084l-4.736 9.27zm134.616 91.994c1.075 0 2.05.437 2.923 1.31l7.657 8.363c-5.911 6.852-13.082 12.192-21.512 16.021-8.43 3.83-18.59 5.744-30.48 5.744-10.412 0-19.85-1.797-28.314-5.391-8.464-3.594-15.685-8.632-21.664-15.114-5.978-6.482-10.613-14.258-13.905-23.326-3.291-9.069-4.937-19.044-4.937-29.926 0-10.882 1.763-20.858 5.29-29.926 3.527-9.069 8.48-16.86 14.862-23.377 6.382-6.516 14.023-11.57 22.923-15.164 8.901-3.594 18.725-5.39 29.473-5.39 10.613 0 19.766 1.645 27.457 4.936 7.692 3.292 14.527 7.759 20.505 13.402l-6.348 8.967a6.917 6.917 0 0 1-1.612 1.663c-.605.436-1.478.655-2.62.655-.873 0-1.797-.32-2.77-.957a139.94 139.94 0 0 1-3.477-2.368 75.096 75.096 0 0 0-4.736-3.023c-1.813-1.075-3.963-2.083-6.448-3.023-2.486-.94-5.374-1.73-8.666-2.368-3.291-.638-7.087-.957-11.386-.957-7.725 0-14.795 1.327-21.21 3.98-6.415 2.653-11.94 6.432-16.575 11.336-4.635 4.903-8.246 10.882-10.832 17.935-2.586 7.053-3.88 14.946-3.88 23.679 0 9.001 1.294 17.028 3.88 24.082 2.586 7.053 6.113 13.015 10.58 17.885 4.467 4.87 9.757 8.581 15.87 11.134 6.113 2.552 12.696 3.829 19.749 3.829 4.3 0 8.162-.252 11.587-.756 3.426-.504 6.6-1.293 9.522-2.368a40.296 40.296 0 0 0 8.162-4.08c2.519-1.647 5.055-3.611 7.607-5.895 1.142-1.008 2.25-1.512 3.325-1.512z" fill="#2C2C2C" fill-rule="evenodd"/></svg>