<svg width="40" height="40" viewBox="0 0 40 40" xmlns="http://www.w3.org/2000/svg">
    <g fill="none" fill-rule="evenodd">
        <rect fill="#D8C0A9" width="40" height="40" rx="3"/>
        <path d="M14.868 7C10.535 7 7 10.535 7 14.868v10.264C7 29.465 10.535 33 14.868 33h10.264C29.465 33 33 29.465 33 25.132V14.868C33 10.535 29.465 7 25.132 7H14.868zm0 2.053h10.264a5.8 5.8 0 0 1 5.815 5.815v10.264a5.801 5.801 0 0 1-5.815 5.815H14.868a5.8 5.8 0 0 1-5.815-5.815V14.868a5.8 5.8 0 0 1 5.815-5.815zm11.974 2.736a1.368 1.368 0 1 0 0 2.737 1.368 1.368 0 0 0 0-2.737zM20 13.158c-3.766 0-6.842 3.076-6.842 6.842 0 3.766 3.076 6.842 6.842 6.842 3.766 0 6.842-3.076 6.842-6.842 0-3.766-3.076-6.842-6.842-6.842zm0 2.053A4.774 4.774 0 0 1 24.79 20 4.774 4.774 0 0 1 20 24.79 4.774 4.774 0 0 1 15.21 20 4.774 4.774 0 0 1 20 15.21z" fill="#27211A" fill-rule="nonzero" stroke="#27211A"/>
    </g>
</svg>
