<svg width="248" height="300" viewBox="0 0 248 300" xmlns="http://www.w3.org/2000/svg"><path d="M82.65 232.663h84.354V.832h25.011v231.831h55.794v24.049h-55.794V300h-25.01v-43.288H48.62c-.588.32-.9.481-.9.481l-39.92-.481s119.763-62.046 119.763-159.685c0-42.523-19.572-72.146-60.603-72.146-21.669 0-45.618 22.12-42.326 41.364-12.646 7.48 0 0-22.125 12.024C-11.24 30.658 34.5 3.625 66.96.351c48.017-4.843 86.332 41.13 84.653 97.157-1.955 65.252-39.554 109.988-68.962 135.155z" fill="#313131" fill-rule="evenodd"/></svg>