<svg width="225" height="300" viewBox="0 0 225 300" xmlns="http://www.w3.org/2000/svg"><path d="M183.022 296.353A150.51 150.51 0 0 1 150 300C67.157 300 0 232.843 0 150S67.157 0 150 0a150.26 150.26 0 0 1 37.739 4.787c.307-.08.614-.158.921-.235l35.931 10.175C154.541 20.058 99.363 78.585 99.363 150c0 71.41 55.172 129.934 125.214 135.272l-41.555 11.081zm-39.003-20.378C102.769 249.248 75.478 202.811 75.478 150c0-52.811 27.292-99.248 68.54-125.975C77.146 27.147 23.886 82.354 23.886 150c0 67.646 53.26 122.853 120.134 125.975z" fill="#313131" fill-rule="evenodd"/></svg>