<svg width="299" height="300" viewBox="0 0 299 300" xmlns="http://www.w3.org/2000/svg"><path d="M255.36 60.464l-43.943 43.944c17.136 20.672 27.437 47.216 27.437 76.165 0 65.958-53.47 119.427-119.427 119.427C53.469 300 0 246.53 0 180.573 0 114.616 53.47 61.146 119.427 61.146c28.405 0 54.495 9.918 74.995 26.478l44.05-44.05-13.512-13.51L298.935 0l-30.063 73.976-13.511-13.512zm-135.933 215.65c52.766 0 95.541-42.775 95.541-95.54 0-52.767-42.775-95.542-95.541-95.542s-95.542 42.775-95.542 95.541 42.776 95.542 95.542 95.542z" fill="#313131" fill-rule="evenodd"/></svg>