<svg width="481" height="300" viewBox="0 0 481 300" xmlns="http://www.w3.org/2000/svg"><path d="M153.397 162.869a298.645 298.645 0 0 1 7.928 16.266 396.365 396.365 0 0 1 7.31 17.296 314.978 314.978 0 0 1 7.412-17.605 413.957 413.957 0 0 1 8.03-16.575l77.007-151.544c1.373-2.608 2.78-4.633 4.221-6.074 1.442-1.442 3.055-2.505 4.84-3.192 1.784-.686 3.808-1.098 6.073-1.235C278.483.069 281.126 0 284.146 0h53.122v300H275.91V127.454c0-8.374.412-17.433 1.236-27.18l-79.479 154.222c-2.47 4.804-5.8 8.442-9.986 10.912-4.187 2.471-8.957 3.707-14.31 3.707h-9.472c-5.353 0-10.123-1.236-14.31-3.707-4.187-2.47-7.515-6.108-9.986-10.912l-79.89-154.427c.549 4.804.96 9.574 1.235 14.31.275 4.736.412 9.094.412 13.075V300H0V0h53.123c3.02 0 5.662.069 7.927.206 2.265.137 4.29.549 6.074 1.235 1.785.687 3.398 1.75 4.839 3.192 1.441 1.441 2.848 3.466 4.22 6.074l77.214 152.162zm316.398-45.15c1.075 0 2.049.437 2.922 1.31l7.658 8.363c-5.911 6.852-13.082 12.192-21.512 16.021-8.43 3.83-18.59 5.744-30.48 5.744-10.413 0-19.85-1.797-28.314-5.391-8.464-3.594-15.685-8.632-21.664-15.114-5.978-6.482-10.613-14.258-13.905-23.326-3.291-9.069-4.937-19.044-4.937-29.926 0-10.882 1.763-20.858 5.29-29.926 3.526-9.069 8.48-16.86 14.862-23.377 6.381-6.516 14.022-11.57 22.923-15.164 8.9-3.594 18.725-5.39 29.473-5.39 10.613 0 19.765 1.645 27.457 4.936 7.691 3.292 14.526 7.759 20.505 13.402l-6.348 8.967a6.917 6.917 0 0 1-1.612 1.663c-.605.436-1.478.655-2.62.655-.873 0-1.797-.32-2.771-.957a139.938 139.938 0 0 1-3.476-2.368 75.388 75.388 0 0 0-4.736-3.023c-1.814-1.075-3.963-2.083-6.449-3.023-2.485-.94-5.374-1.73-8.665-2.368-3.292-.638-7.087-.957-11.386-.957-7.725 0-14.795 1.327-21.21 3.98-6.415 2.653-11.94 6.432-16.575 11.336-4.636 4.903-8.246 10.882-10.832 17.935-2.586 7.053-3.88 14.946-3.88 23.679 0 9.001 1.294 17.028 3.88 24.082 2.586 7.053 6.113 13.015 10.58 17.885 4.467 4.87 9.757 8.581 15.87 11.134 6.112 2.552 12.695 3.829 19.749 3.829 4.299 0 8.161-.252 11.587-.756s6.6-1.293 9.522-2.368a40.296 40.296 0 0 0 8.162-4.08c2.519-1.647 5.054-3.611 7.607-5.895 1.142-1.008 2.25-1.512 3.325-1.512z" fill="#2C2C2C" fill-rule="evenodd"/></svg>