<svg width="172" height="300" viewBox="0 0 172 300" xmlns="http://www.w3.org/2000/svg"><path d="M168.28 0c-6.15 22.504-21.247 41.313-41.231 52.367 26.386 14.595 44.253 42.711 44.253 75 0 43.544-32.494 79.498-74.556 84.939v31.777h56.804v23.077H96.746V300h-22.19v-32.84H18.64v-23.077h55.917v-31.777C32.494 206.866 0 170.91 0 127.366c0-32.288 17.867-60.404 44.253-75C24.27 41.314 9.172 22.505 3.023 0h24.043c8.913 23.856 31.78 40.828 58.585 40.828 26.804 0 49.672-16.972 58.585-40.828h24.044zM85.65 190.828c34.56 0 62.575-28.214 62.575-63.017 0-34.804-28.015-63.018-62.574-63.018S23.077 93.007 23.077 127.81c0 34.803 28.015 63.017 62.574 63.017z" fill="#313131" fill-rule="evenodd"/></svg>