<svg width="259" height="300" viewBox="0 0 259 300" xmlns="http://www.w3.org/2000/svg"><path d="M117.857 239.61v-23.984c-54.243-5.675-96.865-50.402-99.246-105.561h-.105V63.312H0L29.708 0l29.708 63.312H42.857v46.753h-.42c1.866 42.427 34.05 76.978 75.42 82.52V63.313H99.351L129.058 0l29.708 63.312h-16.558V192.45c42.154-6.133 74.531-42.426 74.531-86.281 0-1.964-.065-3.913-.193-5.844h.662V63.312H198.7L228.41 0l29.708 63.312h-17.533v46.753h-.104c-2.367 54.829-44.494 99.35-98.272 105.455v24.09h62.337v24.351h-62.337V300h-24.35v-36.039H56.493v-24.35h61.363z" fill="#313131" fill-rule="evenodd"/></svg>