<svg width="241" height="300" viewBox="0 0 241 300" xmlns="http://www.w3.org/2000/svg"><path d="M134.155 234.507h67.606v26.408h-67.606V300h-26.409v-39.085H41.197v-26.408h66.55v-26.011C47.196 202.162 0 150.959 0 88.732c0-1.77.038-3.53.114-5.281H26.07a95.973 95.973 0 0 0-.21 6.338c0 52.225 42.337 94.562 94.563 94.562 52.225 0 94.562-42.337 94.562-94.562 0-2.13-.07-4.244-.21-6.338h25.956c.076 1.75.114 3.512.114 5.281 0 61.864-46.65 112.833-106.69 119.649v26.126zm-12.676-97.183c-37.921 0-68.662-30.741-68.662-68.662C52.817 30.741 83.557 0 121.479 0c37.92 0 68.662 30.741 68.662 68.662 0 37.92-30.741 68.662-68.662 68.662zm.364-29.346c21.787 0 39.448-17.787 39.448-39.729 0-21.94-17.661-39.728-39.448-39.728S82.394 46.308 82.394 68.25s17.662 39.729 39.449 39.729z" fill="#313131" fill-rule="evenodd"/></svg>