<svg width="189" height="300" viewBox="0 0 189 300" xmlns="http://www.w3.org/2000/svg"><path d="M50.436 173.948v122.008h-23.79V46.63H0V22.839h26.646V0h23.79v22.839h26.646v23.79H50.436v98.276c11.84-10.25 41.788-33.565 69.23-33.565 52.34 0 68.756 37.827 68.756 58.525 0 36.4-48.147 57.334-48.533 87.074-.168 12.94 9.992 23.553 9.992 23.553L136.558 300s-21.564-20.668-20.698-44.25c1.469-39.976 47.838-55.422 48.533-87.074.466-21.19-17.843-33.545-44.964-33.545-28.069 0-58.499 28.173-68.993 38.817z" fill="#313131" fill-rule="evenodd"/></svg>