<svg width="300" height="300" viewBox="0 0 300 300" xmlns="http://www.w3.org/2000/svg"><path d="M150 300C67.157 300 0 232.843 0 150S67.157 0 150 0s150 67.157 150 150-67.157 150-150 150zm0-25.243c68.902 0 124.757-56.073 124.757-125.242 0-69.17-55.855-125.243-124.757-125.243-68.902 0-124.757 56.073-124.757 125.243 0 69.17 55.855 125.242 124.757 125.242zm0-86.407c-21.18 0-38.35-17.17-38.35-38.35s17.17-38.35 38.35-38.35 38.35 17.17 38.35 38.35-17.17 38.35-38.35 38.35z" fill="#323232" fill-rule="evenodd"/></svg>