<svg width="160" height="300" viewBox="0 0 160 300" xmlns="http://www.w3.org/2000/svg"><path d="M11.294.465C29.92 15.888 42.864 37.932 46.52 62.99h19.509V23.164h26.297V62.99h19.438c3.693-25.31 16.862-47.546 35.79-62.99l11.233 24.054c-14.076 13.679-22.821 32.814-22.821 53.992 0 21.423 8.949 40.756 23.312 54.465v.902l-11.238 22.101c-19.899-16.03-33.532-39.524-36.65-66.23H92.326v58.288c36.337 6.051 64.038 37.636 64.038 75.691 0 42.38-34.356 76.737-76.736 76.737-42.381 0-76.737-34.356-76.737-76.737 0-37.74 27.244-69.116 63.138-75.535V89.284H46.893c-3.073 26.33-16.369 49.537-35.813 65.549L0 132.489c14.35-13.708 23.29-33.031 23.29-54.443 0-21.333-8.874-40.593-23.131-54.291L11.294.465zm68.668 272.743c27.545 0 49.874-22.488 49.874-50.228 0-27.74-22.33-50.227-49.874-50.227-27.544 0-49.873 22.487-49.873 50.227s22.329 50.228 49.873 50.228z" fill="#313131" fill-rule="evenodd"/></svg>