<svg width="199" height="300" viewBox="0 0 199 300" xmlns="http://www.w3.org/2000/svg"><path d="M112.371 235.052h65.98v26.804h-65.98V300H86.598v-38.144H21.649v-26.804h64.949v-36.91C37.742 191.823 0 150.062 0 99.485 0 44.54 44.54 0 99.485 0c54.943 0 99.484 44.54 99.484 99.485 0 50.576-37.742 92.338-86.598 98.657v36.91zm-12.886-61.856c40.14 0 72.68-32.771 72.68-73.196s-32.54-73.196-72.68-73.196c-40.14 0-72.68 32.771-72.68 73.196s32.54 73.196 72.68 73.196z" fill="#313131" fill-rule="evenodd"/></svg>